<svg width="1200" height="900" viewBox="0 0 1200 900" fill="none" xmlns="http://www.w3.org/2000/svg">
  <defs>
    <linearGradient id="a" x1="0" y1="0" x2="1" y2="1">
      <stop offset="0" stop-color="#D8F2DD"/>
      <stop offset="1" stop-color="#FFFFFF"/>
    </linearGradient>
    <linearGradient id="b" x1="0" y1="0" x2="1" y2="1">
      <stop offset="0" stop-color="#2B9E54"/>
      <stop offset="1" stop-color="#166C37"/>
    </linearGradient>
  </defs>
  <rect width="1200" height="900" rx="44" fill="url(#a)"/>
  <circle cx="930" cy="220" r="145" fill="#B7E8C6"/>
  <rect x="130" y="470" width="760" height="240" rx="24" fill="#E6F5E8"/>
  <g transform="translate(180 520)">
    <rect width="640" height="150" rx="20" fill="#0E5830"/>
    <g stroke="#89C79E" stroke-width="4">
      <line x1="0" y1="30" x2="640" y2="30"/>
      <line x1="0" y1="75" x2="640" y2="75"/>
      <line x1="0" y1="120" x2="640" y2="120"/>
      <line x1="80" y1="0" x2="80" y2="150"/>
      <line x1="160" y1="0" x2="160" y2="150"/>
      <line x1="240" y1="0" x2="240" y2="150"/>
      <line x1="320" y1="0" x2="320" y2="150"/>
      <line x1="400" y1="0" x2="400" y2="150"/>
      <line x1="480" y1="0" x2="480" y2="150"/>
      <line x1="560" y1="0" x2="560" y2="150"/>
    </g>
  </g>
  <circle cx="220" cy="220" r="88" fill="#F4CC56"/>
  <path d="M220 70V120M220 320V370M70 220H120M320 220H370M115 115L150 150M290 290L325 325M115 325L150 290M290 150L325 115" stroke="#F4CC56" stroke-width="14" stroke-linecap="round"/>
  <path d="M865 550L985 390L1100 550" fill="url(#b)"/>
  <rect x="835" y="550" width="300" height="180" rx="18" fill="#2E8C4D"/>
</svg>
