<svg width="1200" height="900" viewBox="0 0 1200 900" fill="none" xmlns="http://www.w3.org/2000/svg">
  <defs>
    <linearGradient id="bg2" x1="0" y1="0" x2="1" y2="1">
      <stop offset="0" stop-color="#E9F6EE"/>
      <stop offset="1" stop-color="#FFFFFF"/>
    </linearGradient>
  </defs>
  <rect width="1200" height="900" rx="44" fill="url(#bg2)"/>
  <g opacity="0.5" stroke="#8EC5A1" stroke-width="3">
    <line x1="120" y1="120" x2="1080" y2="120"/>
    <line x1="120" y1="220" x2="1080" y2="220"/>
    <line x1="120" y1="320" x2="1080" y2="320"/>
    <line x1="120" y1="420" x2="1080" y2="420"/>
    <line x1="120" y1="520" x2="1080" y2="520"/>
    <line x1="120" y1="620" x2="1080" y2="620"/>
    <line x1="120" y1="720" x2="1080" y2="720"/>
    <line x1="200" y1="80" x2="200" y2="820"/>
    <line x1="360" y1="80" x2="360" y2="820"/>
    <line x1="520" y1="80" x2="520" y2="820"/>
    <line x1="680" y1="80" x2="680" y2="820"/>
    <line x1="840" y1="80" x2="840" y2="820"/>
    <line x1="1000" y1="80" x2="1000" y2="820"/>
  </g>
  <rect x="200" y="190" width="310" height="210" rx="20" fill="#2A8A4A"/>
  <rect x="545" y="270" width="290" height="170" rx="20" fill="#4CA86D"/>
  <rect x="880" y="360" width="130" height="300" rx="20" fill="#195B33"/>
  <circle cx="335" cy="560" r="85" fill="#A4DCB6"/>
  <circle cx="665" cy="620" r="70" fill="#76BF92"/>
  <circle cx="980" cy="220" r="54" fill="#BDD7C6"/>
</svg>
